<mxfile host="app.diagrams.net" modified="2022-05-13T14:21:40.275Z" agent="5.0 (X11; Linux x86_64) AppleWebKit/537.36 (KHTML, like Gecko) Chrome/100.0.4896.127 Safari/537.36" etag="grnYP0H4wvAJ6kOHM1Ws" version="18.0.3" type="github">
  <diagram id="2lmbKR_MvFjQ50chhQV9" name="Page-1">
    <mxGraphModel dx="2062" dy="1065" grid="1" gridSize="10" guides="1" tooltips="1" connect="1" arrows="1" fold="1" page="1" pageScale="1" pageWidth="827" pageHeight="1169" math="0" shadow="0">
      <root>
        <mxCell id="0" />
        <mxCell id="1" parent="0" />
        <mxCell id="nJEN34YKC323t9ce6qK3-17" style="edgeStyle=orthogonalEdgeStyle;rounded=0;orthogonalLoop=1;jettySize=auto;html=1;" edge="1" parent="1" source="nJEN34YKC323t9ce6qK3-2" target="nJEN34YKC323t9ce6qK3-7">
          <mxGeometry relative="1" as="geometry">
            <mxPoint x="190" y="170" as="targetPoint" />
          </mxGeometry>
        </mxCell>
        <mxCell id="nJEN34YKC323t9ce6qK3-2" value="Skill" style="swimlane;" vertex="1" parent="1">
          <mxGeometry x="40" y="30" width="120" height="100" as="geometry" />
        </mxCell>
        <mxCell id="nJEN34YKC323t9ce6qK3-3" value="&lt;p style=&quot;text-align: left;&quot;&gt;&lt;span style=&quot;font-family: noto_regular; color: rgb(75, 75, 75); font-size: 10pt;&quot;&gt;- name&lt;/span&gt;&lt;/p&gt;&lt;p style=&quot;text-align: left;&quot;&gt;&lt;span style=&quot;font-family: noto_regular; color: rgb(75, 75, 75); font-size: 10pt;&quot;&gt;- priority&lt;/span&gt;&lt;/p&gt;" style="text;html=1;align=center;verticalAlign=middle;resizable=0;points=[];autosize=1;strokeColor=none;fillColor=none;" vertex="1" parent="nJEN34YKC323t9ce6qK3-2">
          <mxGeometry x="10" y="30" width="60" height="70" as="geometry" />
        </mxCell>
        <mxCell id="nJEN34YKC323t9ce6qK3-4" value="CV" style="swimlane;startSize=23;" vertex="1" parent="1">
          <mxGeometry x="40" y="280" width="120" height="100" as="geometry" />
        </mxCell>
        <mxCell id="nJEN34YKC323t9ce6qK3-5" value="&lt;p style=&quot;text-align: left;&quot;&gt;&lt;span style=&quot;font-family: noto_regular; font-size: 10pt;&quot;&gt;- gLink&lt;/span&gt;&lt;/p&gt;&lt;p style=&quot;text-align: left;&quot;&gt;&lt;span style=&quot;font-family: noto_regular; font-size: 10pt;&quot;&gt;- linkToCvFile&lt;/span&gt;&lt;/p&gt;" style="text;html=1;align=center;verticalAlign=middle;resizable=0;points=[];autosize=1;strokeColor=none;fillColor=none;container=1;" vertex="1" parent="nJEN34YKC323t9ce6qK3-4">
          <mxGeometry x="10" y="30" width="90" height="70" as="geometry" />
        </mxCell>
        <mxCell id="nJEN34YKC323t9ce6qK3-16" style="edgeStyle=orthogonalEdgeStyle;rounded=0;orthogonalLoop=1;jettySize=auto;html=1;entryX=0;entryY=0.021;entryDx=0;entryDy=0;entryPerimeter=0;" edge="1" parent="1" source="nJEN34YKC323t9ce6qK3-7" target="nJEN34YKC323t9ce6qK3-15">
          <mxGeometry relative="1" as="geometry">
            <Array as="points">
              <mxPoint x="200" y="216" />
              <mxPoint x="200" y="216" />
            </Array>
          </mxGeometry>
        </mxCell>
        <mxCell id="nJEN34YKC323t9ce6qK3-7" value="Users Skills" style="swimlane;startSize=23;" vertex="1" parent="1">
          <mxGeometry x="40" y="160" width="120" height="100" as="geometry" />
        </mxCell>
        <mxCell id="nJEN34YKC323t9ce6qK3-8" value="&lt;p style=&quot;text-align: left;&quot;&gt;&lt;span style=&quot;font-family: noto_regular; color: rgb(75, 75, 75); font-size: 10pt;&quot;&gt;- rate&lt;/span&gt;&lt;/p&gt;&lt;p style=&quot;text-align: left;&quot;&gt;&lt;span style=&quot;font-family: noto_regular; color: rgb(75, 75, 75); font-size: 10pt;&quot;&gt;- priority&lt;/span&gt;&lt;/p&gt;" style="text;html=1;align=center;verticalAlign=middle;resizable=0;points=[];autosize=1;strokeColor=none;fillColor=none;container=1;" vertex="1" parent="nJEN34YKC323t9ce6qK3-7">
          <mxGeometry x="10" y="30" width="60" height="70" as="geometry" />
        </mxCell>
        <mxCell id="nJEN34YKC323t9ce6qK3-20" style="edgeStyle=orthogonalEdgeStyle;rounded=0;orthogonalLoop=1;jettySize=auto;html=1;entryX=0.008;entryY=0.811;entryDx=0;entryDy=0;entryPerimeter=0;startArrow=none;" edge="1" parent="1" source="nJEN34YKC323t9ce6qK3-21" target="nJEN34YKC323t9ce6qK3-15">
          <mxGeometry relative="1" as="geometry">
            <Array as="points">
              <mxPoint x="240" y="440" />
              <mxPoint x="310" y="440" />
              <mxPoint x="310" y="437" />
            </Array>
          </mxGeometry>
        </mxCell>
        <mxCell id="nJEN34YKC323t9ce6qK3-9" value="Slot" style="swimlane;startSize=23;" vertex="1" parent="1">
          <mxGeometry x="40" y="400" width="120" height="190" as="geometry" />
        </mxCell>
        <mxCell id="nJEN34YKC323t9ce6qK3-10" value="&lt;p style=&quot;text-align: left;&quot;&gt;&lt;span style=&quot;font-family: noto_regular; color: rgb(75, 75, 75); font-size: 10pt;&quot;&gt;- beginDate&lt;/span&gt;&lt;/p&gt;&lt;p style=&quot;text-align: left;&quot;&gt;&lt;span style=&quot;font-family: noto_regular; color: rgb(75, 75, 75); font-size: 10pt;&quot;&gt;- endDate &lt;/span&gt;&lt;/p&gt;&lt;p style=&quot;text-align: left;&quot;&gt;&lt;span style=&quot;font-family: noto_regular; color: rgb(75, 75, 75); font-size: 10pt;&quot;&gt;- isApproved&lt;/span&gt;&lt;/p&gt;&lt;p style=&quot;text-align: left;&quot;&gt;&lt;span style=&quot;font-family: noto_regular; color: rgb(75, 75, 75); font-size: 10pt;&quot;&gt;- isVacation&lt;/span&gt;&lt;/p&gt;&lt;p style=&quot;text-align: left;&quot;&gt;&lt;span style=&quot;font-family: noto_regular; color: rgb(75, 75, 75); font-size: 10pt;&quot;&gt;- isSickLeave&lt;/span&gt;&lt;/p&gt;" style="text;html=1;align=center;verticalAlign=middle;resizable=0;points=[];autosize=1;strokeColor=none;fillColor=none;container=1;" vertex="1" parent="nJEN34YKC323t9ce6qK3-9">
          <mxGeometry x="10" y="35" width="90" height="150" as="geometry" />
        </mxCell>
        <mxCell id="nJEN34YKC323t9ce6qK3-24" style="edgeStyle=orthogonalEdgeStyle;rounded=0;orthogonalLoop=1;jettySize=auto;html=1;" edge="1" parent="1" source="nJEN34YKC323t9ce6qK3-11" target="nJEN34YKC323t9ce6qK3-15">
          <mxGeometry relative="1" as="geometry">
            <Array as="points">
              <mxPoint x="340" y="645" />
            </Array>
          </mxGeometry>
        </mxCell>
        <mxCell id="nJEN34YKC323t9ce6qK3-11" value="Profile" style="swimlane;" vertex="1" parent="1">
          <mxGeometry x="40" y="610" width="120" height="70" as="geometry" />
        </mxCell>
        <mxCell id="nJEN34YKC323t9ce6qK3-12" value="&lt;p style=&quot;text-align: left;&quot;&gt;&lt;font face=&quot;noto_regular&quot; color=&quot;#4b4b4b&quot;&gt;&lt;span style=&quot;font-size: 13.3333px;&quot;&gt;- timeZone&lt;/span&gt;&lt;/font&gt;&lt;/p&gt;" style="text;html=1;align=center;verticalAlign=middle;resizable=0;points=[];autosize=1;strokeColor=none;fillColor=none;" vertex="1" parent="nJEN34YKC323t9ce6qK3-11">
          <mxGeometry x="5" y="30" width="70" height="40" as="geometry" />
        </mxCell>
        <mxCell id="nJEN34YKC323t9ce6qK3-18" style="edgeStyle=orthogonalEdgeStyle;rounded=0;orthogonalLoop=1;jettySize=auto;html=1;" edge="1" parent="1" source="nJEN34YKC323t9ce6qK3-15">
          <mxGeometry relative="1" as="geometry">
            <mxPoint x="160" y="250" as="targetPoint" />
            <Array as="points">
              <mxPoint x="280" y="250" />
              <mxPoint x="280" y="250" />
            </Array>
          </mxGeometry>
        </mxCell>
        <mxCell id="nJEN34YKC323t9ce6qK3-19" style="edgeStyle=orthogonalEdgeStyle;rounded=0;orthogonalLoop=1;jettySize=auto;html=1;entryX=-0.008;entryY=0.614;entryDx=0;entryDy=0;entryPerimeter=0;" edge="1" parent="1" target="nJEN34YKC323t9ce6qK3-15">
          <mxGeometry relative="1" as="geometry">
            <mxPoint x="160" y="340" as="sourcePoint" />
            <Array as="points">
              <mxPoint x="160" y="360" />
              <mxPoint x="319" y="360" />
            </Array>
          </mxGeometry>
        </mxCell>
        <mxCell id="nJEN34YKC323t9ce6qK3-22" value="" style="group" vertex="1" connectable="0" parent="1">
          <mxGeometry x="320" y="190" width="120" height="300" as="geometry" />
        </mxCell>
        <mxCell id="nJEN34YKC323t9ce6qK3-14" value="User" style="swimlane;startSize=23;" vertex="1" parent="nJEN34YKC323t9ce6qK3-22">
          <mxGeometry width="120" height="300" as="geometry" />
        </mxCell>
        <mxCell id="nJEN34YKC323t9ce6qK3-15" value="&lt;p style=&quot;text-align: left;&quot;&gt;&lt;span style=&quot;font-family: noto_regular; color: rgb(75, 75, 75); font-size: 10pt;&quot;&gt;- name&lt;/span&gt;&lt;/p&gt;&lt;p style=&quot;text-align: left;&quot;&gt;&lt;span style=&quot;font-family: noto_regular; color: rgb(75, 75, 75); font-size: 10pt;&quot;&gt;- gradeKind&lt;/span&gt;&lt;/p&gt;&lt;p style=&quot;text-align: left;&quot;&gt;&lt;span style=&quot;font-family: noto_regular; color: rgb(75, 75, 75); font-size: 10pt;&quot;&gt;- category&lt;/span&gt;&lt;/p&gt;&lt;p style=&quot;text-align: left;&quot;&gt;&lt;span style=&quot;font-family: noto_regular; color: rgb(75, 75, 75); font-size: 10pt;&quot;&gt;- companyEmail&lt;/span&gt;&lt;/p&gt;&lt;p style=&quot;text-align: left;&quot;&gt;&lt;span style=&quot;font-family: noto_regular; color: rgb(75, 75, 75); font-size: 10pt;&quot;&gt;- hasCv&lt;/span&gt;&lt;/p&gt;&lt;p style=&quot;text-align: left;&quot;&gt;&lt;span style=&quot;font-family: noto_regular; color: rgb(75, 75, 75); font-size: 10pt;&quot;&gt;- linkToUser&lt;/span&gt;&lt;/p&gt;&lt;p style=&quot;text-align: left;&quot;&gt;&lt;span style=&quot;font-family: noto_regular; color: rgb(75, 75, 75); font-size: 10pt;&quot;&gt;- linkToUserInfo&lt;/span&gt;&lt;/p&gt;&lt;p style=&quot;text-align: left;&quot;&gt;&lt;span style=&quot;font-family: noto_regular; color: rgb(75, 75, 75); font-size: 10pt;&quot;&gt;- avatarUrl&lt;/span&gt;&lt;/p&gt;&lt;p style=&quot;text-align: left;&quot;&gt;&lt;span style=&quot;font-family: noto_regular; color: rgb(75, 75, 75); font-size: 10pt;&quot;&gt;- englishLevel&lt;/span&gt;&lt;/p&gt;&lt;p style=&quot;text-align: left;&quot;&gt;&lt;span style=&quot;font-family: noto_regular; color: rgb(75, 75, 75); font-size: 10pt;&quot;&gt;- englishLevelIndex&lt;/span&gt;&lt;/p&gt;" style="text;html=1;align=center;verticalAlign=middle;resizable=0;points=[];autosize=1;strokeColor=none;fillColor=none;container=1;" vertex="1" parent="nJEN34YKC323t9ce6qK3-22">
          <mxGeometry y="20" width="120" height="280" as="geometry" />
        </mxCell>
        <mxCell id="nJEN34YKC323t9ce6qK3-21" value="idleableVacation" style="text;html=1;resizable=0;autosize=1;align=center;verticalAlign=middle;points=[];fillColor=none;strokeColor=none;rounded=0;" vertex="1" parent="1">
          <mxGeometry x="190" y="430" width="100" height="20" as="geometry" />
        </mxCell>
        <mxCell id="nJEN34YKC323t9ce6qK3-23" value="" style="edgeStyle=orthogonalEdgeStyle;rounded=0;orthogonalLoop=1;jettySize=auto;html=1;endArrow=none;" edge="1" parent="1" source="nJEN34YKC323t9ce6qK3-9">
          <mxGeometry relative="1" as="geometry">
            <mxPoint x="160" y="495" as="sourcePoint" />
            <mxPoint x="190" y="440" as="targetPoint" />
            <Array as="points">
              <mxPoint x="180" y="440" />
              <mxPoint x="180" y="440" />
            </Array>
          </mxGeometry>
        </mxCell>
      </root>
    </mxGraphModel>
  </diagram>
</mxfile>
